<svg xmlns="http://www.w3.org/2000/svg" xmlns:xlink="http://www.w3.org/1999/xlink" contentStyleType="text/css" data-diagram-type="DESCRIPTION" height="896.875px" preserveAspectRatio="none" style="width:2390px;height:896px;background:#FFFFFF;" version="1.1" viewBox="0 0 2390 896" width="2390.625px" zoomAndPan="magnify"><defs/><g><!--entity input--><g class="entity" data-entity="input" data-source-line="28" data-uid="ent0002" id="entity_input"><rect fill="#F1F1F1" height="114.0259" rx="6.25" ry="6.25" style="stroke:#181818;stroke-width:1.875;" width="429.8035" x="919.6875" y="21.875"/><text fill="#000000" font-family="Times" font-size="43.75" lengthAdjust="spacing" textLength="367.3035" x="950.9375" y="95.4224">Time-Series Data</text></g><!--entity s1--><g class="entity" data-entity="s1" data-source-line="31" data-uid="ent0003" id="entity_s1"><rect fill="#F1F1F1" height="268.6035" rx="6.25" ry="6.25" style="stroke:#181818;stroke-width:1.875;" width="719.7968" x="774.7188" y="201.5313"/><text fill="#000000" font-family="Times" font-size="43.75" font-weight="bold" lengthAdjust="spacing" textLength="151.8646" x="805.9687" y="275.0786">Stage I</text><text fill="#000000" font-family="Times" font-size="43.75" lengthAdjust="spacing" textLength="505.4321" x="957.8334" y="275.0786">: Automatic Diagnostics</text><text fill="#000000" font-family="Times" font-size="43.75" font-style="italic" lengthAdjust="spacing" textLength="516.3696" x="805.9687" y="326.6045">Stationarity, Irregularity,</text><text fill="#000000" font-family="Times" font-size="43.75" font-style="italic" lengthAdjust="spacing" textLength="537.0056" x="805.9687" y="378.1304">Persistence, Nonlinearity,</text><text fill="#000000" font-family="Times" font-size="43.75" font-style="italic" lengthAdjust="spacing" textLength="276.1719" x="805.9687" y="429.6563">Confounding</text></g><!--entity audit--><g class="entity" data-entity="audit" data-source-line="34" data-uid="ent0004" id="entity_audit"><rect fill="#E8E8E8" height="165.5518" rx="6.25" ry="6.25" style="stroke:#181818;stroke-width:1.875;" width="315.8569" x="379.8125" y="253.0625"/><text fill="#000000" font-family="Times" font-size="43.75" lengthAdjust="spacing" textLength="253.3569" x="411.0625" y="326.6099">Assumption</text><text fill="#000000" font-family="Times" font-size="43.75" lengthAdjust="spacing" textLength="113.8824" x="411.0625" y="378.1357">Audit</text></g><!--entity expert--><g class="entity" data-entity="expert" data-source-line="35" data-uid="ent0005" id="entity_expert"><rect fill="#E8E8E8" height="165.5518" rx="6.25" ry="6.25" style="stroke:#181818;stroke-width:1.875;" width="226.947" x="424.25" y="535.7813"/><text fill="#000000" font-family="Times" font-size="43.75" lengthAdjust="spacing" textLength="164.447" x="455.5" y="609.3286">Domain</text><text fill="#000000" font-family="Times" font-size="43.75" lengthAdjust="spacing" textLength="136.7188" x="455.5" y="660.8545">Expert</text></g><!--entity s2--><g class="entity" data-entity="s2" data-source-line="38" data-uid="ent0006" id="entity_s2"><rect fill="#F1F1F1" height="217.0776" rx="6.25" ry="6.25" style="stroke:#181818;stroke-width:1.875;" width="294.8578" x="1574.6875" y="227.3125"/><text fill="#000000" font-family="Times" font-size="43.75" font-weight="bold" lengthAdjust="spacing" textLength="166.3696" x="1605.9375" y="300.8599">Stage II</text><text fill="#000000" font-family="Times" font-size="43.75" lengthAdjust="spacing" textLength="88.1836" x="1605.9375" y="352.3857">Risk</text><text fill="#000000" font-family="Times" font-size="43.75" lengthAdjust="spacing" textLength="232.3578" x="1605.9375" y="403.9116">Calibration</text></g><!--entity r--><g class="entity" data-entity="r" data-source-line="39" data-uid="ent0007" id="entity_r"><rect fill="#F1F1F1" height="114.0259" rx="6.25" ry="6.25" style="stroke:#181818;stroke-width:1.875;" width="440.3351" x="1501.9375" y="561.5313"/><text fill="#000000" font-family="Times" font-size="43.75" font-weight="bold" lengthAdjust="spacing" textLength="30.1849" x="1533.1875" y="635.0786">R</text><text fill="#000000" font-family="Times" font-size="43.75" lengthAdjust="spacing" textLength="333.8074" x="1577.2152" y="635.0786">&#177; UI risk scores</text></g><!--entity s3--><g class="entity" data-entity="s3" data-source-line="40" data-uid="ent0008" id="entity_s3"><rect fill="#F1F1F1" height="114.0259" rx="6.25" ry="6.25" style="stroke:#181818;stroke-width:1.875;" width="587.6923" x="1428.25" y="766.9375"/><text fill="#000000" font-family="Times" font-size="43.75" font-weight="bold" lengthAdjust="spacing" textLength="180.8746" x="1459.5" y="840.4849">Stage III</text><text fill="#000000" font-family="Times" font-size="43.75" lengthAdjust="spacing" textLength="344.3176" x="1640.3746" y="840.4849">: Decision Policy</text></g><!--entity rec--><g class="entity" data-entity="rec" data-source-line="43" data-uid="ent0009" id="entity_rec"><rect fill="#F1F1F1" height="114.0259" rx="6.25" ry="6.25" style="stroke:#181818;stroke-width:1.875;" width="400.3448" x="890.6875" y="766.9375"/><text fill="#000000" font-family="Times" font-size="43.75" lengthAdjust="spacing" textLength="337.8448" x="921.9375" y="840.4849">Recommend m*</text></g><!--entity abs--><g class="entity" data-entity="abs" data-source-line="44" data-uid="ent0010" id="entity_abs"><rect fill="#F1F1F1" height="114.0259" rx="6.25" ry="6.25" style="stroke:#181818;stroke-width:1.875;" width="222.8455" x="2151.3125" y="766.9375"/><text fill="#000000" font-family="Times" font-size="43.75" lengthAdjust="spacing" textLength="160.3455" x="2182.5625" y="840.4849">Abstain</text></g><g class="entity" data-entity="GMN21" data-source-line="62" data-uid="ent0022" id="entity_GMN21"><path d="M18.75,217.1563 L18.75,454.5098 A0,0 0 0 0 18.75,454.5098 L331.7078,454.5098 A0,0 0 0 0 331.7078,454.5098 L331.7078,348.3438 L378.9375,335.8438 L331.7078,323.3438 L331.7078,248.4063 L300.4578,217.1563 L18.75,217.1563 A0,0 0 0 0 18.75,217.1563" fill="#FAFAFA" style="stroke:#181818;stroke-width:1.5625;"/><path d="M300.4578,217.1563 L300.4578,248.4063 L331.7078,248.4063 L300.4578,217.1563" fill="#FAFAFA" style="stroke:#181818;stroke-width:1.5625;"/><text fill="#000000" font-family="Times" font-size="43.75" font-weight="bold" lengthAdjust="spacing" textLength="133.2153" x="37.5" y="275.0786">Tier 1</text><text fill="#000000" font-family="Times" font-size="43.75" lengthAdjust="spacing" textLength="233.8531" x="37.5" y="326.6045">Automated</text><text fill="#000000" font-family="Times" font-size="43.75" lengthAdjust="spacing" textLength="247.3328" x="37.5" y="378.1304">assumption</text><text fill="#000000" font-family="Times" font-size="43.75" lengthAdjust="spacing" textLength="218.1732" x="37.5" y="429.6563">evaluation</text></g><g class="entity" data-entity="GMN24" data-source-line="69" data-uid="ent0025" id="entity_GMN24"><path d="M1916.7813,217.1563 L1916.7813,323.3438 L1870.9375,335.8438 L1916.7813,348.3438 L1916.7813,454.5098 A0,0 0 0 0 1916.7813,454.5098 L2321.1483,454.5098 A0,0 0 0 0 2321.1483,454.5098 L2321.1483,248.4063 L2289.8983,217.1563 L1916.7813,217.1563 A0,0 0 0 0 1916.7813,217.1563" fill="#FAFAFA" style="stroke:#181818;stroke-width:1.5625;"/><path d="M2289.8983,217.1563 L2289.8983,248.4063 L2321.1483,248.4063 L2289.8983,217.1563" fill="#FAFAFA" style="stroke:#181818;stroke-width:1.5625;"/><text fill="#000000" font-family="Times" font-size="43.75" font-weight="bold" lengthAdjust="spacing" textLength="133.2153" x="1935.5313" y="275.0786">Tier 2</text><text fill="#000000" font-family="Times" font-size="43.75" lengthAdjust="spacing" textLength="258.6548" x="1935.5313" y="326.6045">Full pipeline</text><text fill="#000000" font-family="Times" font-size="43.75" lengthAdjust="spacing" textLength="313.4491" x="1935.5313" y="378.1304">with calibrated</text><text fill="#000000" font-family="Times" font-size="43.75" lengthAdjust="spacing" textLength="338.7421" x="1935.5313" y="429.6563">risk assessment</text></g><!--link input to s1--><g class="link" data-entity-1="input" data-entity-2="s1" data-source-line="47" data-uid="lnk11" id="link_input_s1"><path d="M1134.5938,136.4063 C1134.5938,155.4375 1134.5938,158.9375 1134.5938,181.5" fill="none" id="input-to-s1" style="stroke:#181818;stroke-width:1.875;"/><polygon fill="#181818" points="1134.5938,200.25,1147.0938,172.125,1134.5938,184.625,1122.0938,172.125,1134.5938,200.25" style="stroke:#181818;stroke-width:1.875;"/></g><!--reverse link audit to s1--><g class="link" data-entity-1="audit" data-entity-2="s1" data-source-line="50" data-uid="lnk13" id="link_audit_s1"><path d="M715.6563,335.8438 C739.8125,335.8438 746.8125,335.8438 773.25,335.8438" fill="none" id="audit-backto-s1" style="stroke:#181818;stroke-width:1.875;"/><polygon fill="#181818" points="696.9063,335.8438,725.0313,348.3438,712.5313,335.8438,725.0313,323.3438,696.9063,335.8438" style="stroke:#181818;stroke-width:1.875;"/><text fill="#000000" font-family="Times" font-size="43.75" font-weight="bold" lengthAdjust="spacing" textLength="28.9886" x="721.125" y="315.6411">d</text></g><!--link audit to expert--><g class="link" data-entity-1="audit" data-entity-2="expert" data-source-line="51" data-uid="lnk14" id="link_audit_expert"><path d="M537.7188,418.9375 C537.7188,455.2813 537.7188,479.4688 537.7188,515.9375" fill="none" id="audit-to-expert" style="stroke:#181818;stroke-width:1.875;"/><polygon fill="#181818" points="537.7188,534.6875,550.2188,506.5625,537.7188,519.0625,525.2188,506.5625,537.7188,534.6875" style="stroke:#181818;stroke-width:1.875;"/></g><!--link s1 to s2--><g class="link" data-entity-1="s1" data-entity-2="s2" data-source-line="54" data-uid="lnk15" id="link_s1_s2"><path d="M1495.8125,335.8438 C1522.8125,335.8438 1530.25,335.8438 1554.6563,335.8438" fill="none" id="s1-to-s2" style="stroke:#181818;stroke-width:1.875;"/><polygon fill="#181818" points="1573.4063,335.8438,1545.2813,323.3438,1557.7813,335.8438,1545.2813,348.3438,1573.4063,335.8438" style="stroke:#181818;stroke-width:1.875;"/><text fill="#000000" font-family="Times" font-size="43.75" font-weight="bold" lengthAdjust="spacing" textLength="28.9886" x="1520.5313" y="315.6411">d</text></g><!--link s2 to r--><g class="link" data-entity-1="s2" data-entity-2="r" data-source-line="55" data-uid="lnk16" id="link_s2_r"><path d="M1722.0938,445.8438 C1722.0938,485.3438 1722.0938,509.7188 1722.0938,542.5938" fill="none" id="s2-to-r" style="stroke:#181818;stroke-width:1.875;"/><polygon fill="#181818" points="1722.0938,561.3438,1734.5938,533.2188,1722.0938,545.7188,1709.5938,533.2188,1722.0938,561.3438" style="stroke:#181818;stroke-width:1.875;"/></g><!--link r to s3--><g class="link" data-entity-1="r" data-entity-2="s3" data-source-line="56" data-uid="lnk17" id="link_r_s3"><path d="M1722.0938,676.0938 C1722.0938,704.1875 1722.0938,719.625 1722.0938,747.7188" fill="none" id="r-to-s3" style="stroke:#181818;stroke-width:1.875;"/><polygon fill="#181818" points="1722.0938,766.4688,1734.5938,738.3438,1722.0938,750.8438,1709.5938,738.3438,1722.0938,766.4688" style="stroke:#181818;stroke-width:1.875;"/></g><!--reverse link rec to s3--><g class="link" data-entity-1="rec" data-entity-2="s3" data-source-line="57" data-uid="lnk19" id="link_rec_s3"><path d="M1311.0625,823.9688 C1354,823.9688 1381.4688,823.9688 1427.0625,823.9688" fill="none" id="rec-backto-s3" style="stroke:#181818;stroke-width:1.875;"/><polygon fill="#181818" points="1292.3125,823.9688,1320.4375,836.4688,1307.9375,823.9688,1320.4375,811.4688,1292.3125,823.9688" style="stroke:#181818;stroke-width:1.875;"/><text fill="#000000" font-family="Times" font-size="43.75" lengthAdjust="spacing" textLength="86.026" x="1317.4688" y="803.7661">R&lt;&#964;</text></g><!--link s3 to abs--><g class="link" data-entity-1="s3" data-entity-2="abs" data-source-line="58" data-uid="lnk20" id="link_s3_abs"><path d="M2016.9375,823.9688 C2064.375,823.9688 2092.0625,823.9688 2131.5625,823.9688" fill="none" id="s3-to-abs" style="stroke:#181818;stroke-width:1.875;"/><polygon fill="#181818" points="2150.3125,823.9688,2122.1875,811.4688,2134.6875,823.9688,2122.1875,836.4688,2150.3125,823.9688" style="stroke:#181818;stroke-width:1.875;"/><text fill="#000000" font-family="Times" font-size="43.75" lengthAdjust="spacing" textLength="86.0474" x="2041.4375" y="803.7661">R&#8805;&#964;</text></g><!--SRC=[TLJDRXCn4BxlKupA0LWrvAz5g498fMcbNAegBRTSdDr9TXIllRAzX8AuzSA3y02y0Y_0E_0aZEtirb5BSXcFFt_ppUVnsYsfHXXHGzaGJ4UZpFQPMYjTL4RN2CwqcEpOIfHwHse3Qo5jkbFYMhJINMdbhWKVlACQxVFxj_GLONoIRAv4iTqOtQhoGajjO5UHIycLBj5Y0-FJ96c4slhaP9IbMIoSK1k9y2q3_dtKfaHpLr6nLMWjZDwy3Vb5h6OK6ZW9cLIQNz-8ilITdcRVqmB26BtRap-bJKaEZYdjEad_ApJr9rx2N3MjonxxEF9M3cxH45gO2IUEG5YWW6BuhHCRX3dio5LyApL9ZoCbIM7AakTxP9wVmNdhT2qS5J0ZiL7QScYNQZXaZ2EjX25tVmnpOt3JolrgEFI86pIMh4DLu35Swr0d0kB-XLPhxortD1m6gNRiTTuHEps6HhWgbNLkRLitlkPIdRSbkN14-0XUNBxp_nG-Ozd4qCil3Pg8nH3suAxKv4cftW6sOAaMPBTBTI4ahKpeEMgT79vOv3dy_WMVvc0O3xRG1cr0ckUfWxqpBCWo9TneISLzP9ucqdJh-FfiIh70GjSrgXBgF1R0ui2ebNNSUhHdPJtPbTIxB0m23FXPgi67Gw-vCLLKy4hYshtEx1W6Fc9KjFSCyhpCyookEePePwArOp6qgVOq8VJL9Zq9Xnq3E_EePvhPQL-Ns-43Y_T_7aAse-5sVFhlZv-yqHMMOeNInh7crryO2bDYi_2IF27eTUo4Nr6UnvvP2NJJZIN7efylNk1d8TjmsPatsZDbaIz8yOGy03tR9B1TjL92Gms65mLHKR6Vcr0ZZ0ONuWy1Nw1xvFu7]--></g></svg>